<?xml version="1.0" encoding="iso-8859-1"?>
<!-- Generator: Adobe Illustrator 16.0.0, SVG Export Plug-In . SVG Version: 6.00 Build 0)  -->
<!DOCTYPE svg PUBLIC "-//W3C//DTD SVG 1.1//EN" "http://www.w3.org/Graphics/SVG/1.1/DTD/svg11.dtd">
<svg version="1.1" id="Capa_1" xmlns="http://www.w3.org/2000/svg" xmlns:xlink="http://www.w3.org/1999/xlink" x="0px" y="0px"
	 width="532.248px" height="532.248px" viewBox="0 0 532.248 532.248" style="enable-background:new 0 0 532.248 532.248;"
	 xml:space="preserve">
<g>
	<g>
		<path d="M237.303,520.314c7.698,7.699,17.93,11.934,28.821,11.934s21.114-4.234,28.821-11.934l225.379-225.369
			c15.893-15.893,15.893-41.74,0-57.633L294.945,11.934C287.238,4.236,277.006,0,266.124,0c-10.882,0-21.114,4.236-28.821,11.934
			L11.924,237.303c-15.893,15.893-15.893,41.74,0,57.632L237.303,520.314z M47.736,235.869L235.868,47.736
			c8.081-8.09,18.829-12.537,30.256-12.537c11.427,0,22.176,4.446,30.256,12.537l188.133,188.132
			c8.08,8.081,12.536,18.829,12.536,30.256c0,11.426-4.446,22.176-12.536,30.256L296.38,484.514
			c-8.08,8.09-18.829,12.545-30.256,12.545c-11.427,0-22.175-4.455-30.256-12.545L47.736,296.381
			c-8.081-8.08-12.537-18.83-12.537-30.256C35.199,254.697,39.646,243.949,47.736,235.869z"/>
		<path d="M242.629,477.752c12.546,12.547,34.444,12.547,46.99,0l188.133-188.133c6.272-6.273,9.734-14.611,9.734-23.494
			c0-8.884-3.452-17.223-9.734-23.496L289.619,54.497c-6.273-6.273-14.621-9.734-23.495-9.734s-17.222,3.452-23.495,9.734
			L54.496,242.629c-6.273,6.273-9.734,14.611-9.734,23.496c0,8.883,3.452,17.221,9.734,23.494L242.629,477.752z M265.072,117.963
			l38.623,66.88h-23.228v93.836c14.583-22.385,35.075-36.701,61.869-43.346l-1.521-22.396l69.348,33.995l-64.107,43.069
			l-1.798-26.526c-31.47,9.926-62.729,40.334-62.729,141.305h-1.062h-27.636h-1.052V184.843h-25.321L265.072,117.963z"/>
	</g>
</g>
<g>
</g>
<g>
</g>
<g>
</g>
<g>
</g>
<g>
</g>
<g>
</g>
<g>
</g>
<g>
</g>
<g>
</g>
<g>
</g>
<g>
</g>
<g>
</g>
<g>
</g>
<g>
</g>
<g>
</g>
</svg>
