<?xml version="1.0" encoding="utf-8"?>
<!-- Generator: Adobe Illustrator 16.0.0, SVG Export Plug-In . SVG Version: 6.00 Build 0)  -->
<!DOCTYPE svg PUBLIC "-//W3C//DTD SVG 1.1//EN" "http://www.w3.org/Graphics/SVG/1.1/DTD/svg11.dtd">
<svg version="1.1" id="Layer_1" xmlns="http://www.w3.org/2000/svg" xmlns:xlink="http://www.w3.org/1999/xlink" x="0px" y="0px"
	 width="591.413px" height="583.971px" viewBox="8.751 30.979 591.413 583.971"
	 enable-background="new 8.751 30.979 591.413 583.971" xml:space="preserve">
<g>
	<path d="M488.29,30.979L374.52,250.405l81.996-25.863c0,1.432-3.636,6.316-3.636,6.316v269.28c0,0-10.037,43.611-62.779,41.53
		c-46.634-1.848-59.62-41.53-59.62-41.53V138.397c0-26.781-14.848-49.572-32.522-65.778c-23.746-21.958-52.681-32.362-82.816-32.375
		c-30.16,0.013-63.881,10.417-87.614,32.375c-23.831,21.824-41.848,55.558-41.848,94.921v251.936l-76.929-24.48l114.824,219.953
		l108.152-219.953l-84.848,24.48V167.541c0-23.941,13.489-37.699,23.758-47.516c10.367-9.694,28.054-15.117,43.379-15.104
		c15.336-0.012,27.797,5.166,39.094,13.746c14.504,10.979,16.169,26.512,16.169,26.512v357.236
		c0,29.499,21.286,54.701,40.429,72.069c23.599,21.604,55.667,31.837,85.521,31.861c29.694-0.024,60.809-10.184,84.261-31.8
		c23.549-21.493,38.947-54.799,38.702-93.575c0-50.563,0.453-122.449,0.674-181.653c0.098-28.421,0.306-53.893,0.403-72.718
		l80.895,24.847L488.29,30.979z"/>
</g>
</svg>
